<svg width="22" height="23" viewBox="0 0 22 23" fill="none" xmlns="http://www.w3.org/2000/svg">
<g clip-path="url(#clip0)">
<path d="M21.2143 22.3467C21.0923 22.3467 20.9719 22.3184 20.8627 22.2638L14.9087 19.286L8.17603 22.2787C8.16503 22.2834 8.15246 22.2843 8.14067 22.2889C8.11038 22.3003 8.0794 22.3097 8.04795 22.3172C8.01669 22.3256 7.98493 22.3322 7.95289 22.3369C7.88908 22.3421 7.82495 22.3421 7.76119 22.3369C7.72915 22.3322 7.69738 22.3256 7.66612 22.3172C7.63468 22.3097 7.60369 22.3003 7.5734 22.2889C7.56162 22.2843 7.54905 22.2835 7.53805 22.2787L0.466726 19.1359C0.18286 19.0099 -4.60286e-05 18.7284 8.68862e-09 18.4178V1.13235C0.00013812 0.866531 0.134613 0.618805 0.357479 0.473927C0.580391 0.328817 0.861541 0.306349 1.10466 0.414215L7.85699 3.41561L14.6093 0.414215C14.6211 0.409519 14.6337 0.414215 14.6455 0.407125C14.8357 0.322048 15.054 0.326929 15.2402 0.420477C15.2528 0.425955 15.2669 0.420477 15.2795 0.429131L21.5651 3.57195C21.8315 3.70505 21.9997 3.97736 21.9996 4.27518V21.5606C21.9999 21.9945 21.6482 22.3465 21.2143 22.3467ZM7.07132 4.78587L1.57139 2.34156V17.9071L7.07132 20.3514V4.78587ZM14.1426 2.34156L8.64271 4.78587V20.3514L14.1426 17.9071V2.34156ZM20.4282 4.76073L15.714 2.40362V17.9323L20.4282 20.2894V4.76073Z" fill="#2F4859"/>
</g>
<defs>
<clipPath id="clip0">
<rect width="22" height="22" fill="white" transform="matrix(1 0 0 -1 0 22.3467)"/>
</clipPath>
</defs>
</svg>
