<svg width="11" height="17" viewBox="0 0 11 17" fill="none" xmlns="http://www.w3.org/2000/svg">
<path d="M8.16557 16.7453H2.83239C2.56159 16.7453 2.3418 16.5261 2.3418 16.256C2.3418 15.9859 2.56159 15.7666 2.83239 15.7666H8.16557C8.43636 15.7666 8.65615 15.9859 8.65615 16.256C8.65615 16.5261 8.43636 16.7453 8.16557 16.7453Z" fill="#2F4859"/>
<path d="M5.50035 16.745C5.22956 16.745 5.00977 16.5258 5.00977 16.2557V12.253C5.00977 11.9829 5.22956 11.7637 5.50035 11.7637C5.77115 11.7637 5.99094 11.9829 5.99094 12.253V16.2557C5.98919 16.5258 5.77115 16.745 5.50035 16.745Z" fill="#2F4859"/>
<path d="M5.52607 10.5046H5.47332C4.01562 10.5046 2.83399 9.32589 2.83399 7.87183V3.21673C2.83223 1.76267 4.01386 0.583984 5.47332 0.583984H5.52607C6.98377 0.583984 8.16541 1.76267 8.16541 3.21673V7.87183C8.16541 9.32589 6.98377 10.5046 5.52607 10.5046Z" fill="#2F4859"/>
<path d="M5.5267 12.4519H5.47395C4.24836 12.4519 3.09486 11.9748 2.22798 11.1101C1.36109 10.2453 0.882812 9.09471 0.882812 7.87218C0.882812 7.60206 1.10261 7.38281 1.3734 7.38281C1.64419 7.38281 1.86399 7.60206 1.86399 7.87218C1.86399 8.83337 2.24028 9.73843 2.92078 10.419C3.60303 11.0995 4.51036 11.4731 5.47395 11.4731H5.5267C6.4903 11.4731 7.39762 11.0978 8.07988 10.419C8.76213 9.73843 9.13667 8.83337 9.13667 7.87218C9.13667 7.60206 9.35646 7.38281 9.62726 7.38281C9.89805 7.38281 10.1178 7.60206 10.1178 7.87218C10.1178 9.09471 9.63956 10.2453 8.77268 11.1101C7.9058 11.9748 6.7523 12.4519 5.5267 12.4519Z" fill="#2F4859"/>
</svg>
