<svg width="18" height="21" viewBox="0 0 18 21" fill="none" xmlns="http://www.w3.org/2000/svg">
<path d="M18 14.4092V1.28418C18 0.764648 17.5701 0.34668 17.0357 0.34668H3.85714C1.72768 0.34668 0 2.02637 0 4.09668V16.5967C0 18.667 1.72768 20.3467 3.85714 20.3467H17.0357C17.5701 20.3467 18 19.9287 18 19.4092V18.7842C18 18.4912 17.8594 18.2256 17.6424 18.0537C17.4737 17.4522 17.4737 15.7373 17.6424 15.1357C17.8594 14.9678 18 14.7022 18 14.4092ZM5.14286 5.58106C5.14286 5.45215 5.25134 5.34668 5.38393 5.34668H13.9018C14.0344 5.34668 14.1429 5.45215 14.1429 5.58106V6.36231C14.1429 6.49121 14.0344 6.59668 13.9018 6.59668H5.38393C5.25134 6.59668 5.14286 6.49121 5.14286 6.36231V5.58106ZM5.14286 8.08106C5.14286 7.95215 5.25134 7.84668 5.38393 7.84668H13.9018C14.0344 7.84668 14.1429 7.95215 14.1429 8.08106V8.86231C14.1429 8.99121 14.0344 9.09668 13.9018 9.09668H5.38393C5.25134 9.09668 5.14286 8.99121 5.14286 8.86231V8.08106ZM15.3241 17.8467H3.85714C3.14598 17.8467 2.57143 17.2881 2.57143 16.5967C2.57143 15.9092 3.15 15.3467 3.85714 15.3467H15.3241C15.2478 16.0147 15.2478 17.1787 15.3241 17.8467Z" fill="#FBEECB"/>
</svg>
