<svg width="21" height="22" viewBox="0 0 21 22" fill="none" xmlns="http://www.w3.org/2000/svg">
<path fill-rule="evenodd" clip-rule="evenodd" d="M9.3128 0.571289C9.14182 0.571326 8.97639 0.634361 8.84596 0.749203C8.71553 0.864044 8.62854 1.02319 8.60048 1.1984L8.26336 3.30109C7.90987 3.42472 7.56695 3.57388 7.23367 3.74804L5.56078 2.5055C5.42156 2.40221 5.25157 2.35359 5.08108 2.36834C4.9106 2.38309 4.75068 2.46019 4.62983 2.58597L2.58597 4.70926C2.46509 4.83498 2.39109 5.00117 2.37714 5.17827C2.36319 5.35538 2.4102 5.53189 2.5098 5.67636L3.70452 7.41128C3.53796 7.75869 3.39501 8.11556 3.27713 8.48387L1.25019 8.83407C1.08154 8.86323 0.928307 8.95359 0.817761 9.08909C0.707215 9.22458 0.646524 9.39641 0.646484 9.57403V12.575C0.646517 12.7526 0.707205 12.9245 0.817752 13.06C0.928298 13.1955 1.08153 13.2858 1.25019 13.315L3.27431 13.6652C3.39337 14.0324 3.53702 14.3887 3.70452 14.7349L2.50838 16.4728C2.40897 16.6174 2.3622 16.7939 2.37641 16.971C2.39062 17.1481 2.46488 17.3143 2.58597 17.4399L4.62982 19.5631C4.75085 19.6886 4.91085 19.7655 5.08133 19.78C5.25182 19.7945 5.42172 19.7456 5.56078 19.6422L7.23085 18.4011C7.56528 18.5741 7.90882 18.7225 8.26336 18.845L8.60047 20.9507C8.62854 21.1259 8.71552 21.2851 8.84596 21.3999C8.97639 21.5148 9.14182 21.5778 9.31279 21.5778H12.2016C12.3725 21.5778 12.538 21.5148 12.6684 21.3999C12.7988 21.2851 12.8858 21.1259 12.9139 20.9507L13.251 18.848C13.6045 18.7243 13.9474 18.5752 14.2807 18.4011L15.9536 19.6436C16.0928 19.7469 16.2628 19.7955 16.4333 19.7808C16.6038 19.766 16.7637 19.6889 16.8845 19.5632L18.9284 17.4399C19.0493 17.3142 19.1233 17.148 19.1372 16.9709C19.1512 16.7938 19.1042 16.6172 19.0046 16.4728L17.8098 14.7379C17.9764 14.3904 18.1194 14.0336 18.2372 13.6653L20.2642 13.3151C20.4328 13.2859 20.5861 13.1955 20.6966 13.06C20.8072 12.9245 20.8678 12.7526 20.8679 12.575V9.57411C20.8678 9.3965 20.8071 9.22467 20.6966 9.08918C20.5861 8.95368 20.4328 8.86331 20.2642 8.83416L18.2401 8.48396C18.121 8.11672 17.9773 7.76044 17.8098 7.41422L19.006 5.67645C19.1054 5.53181 19.1522 5.35521 19.138 5.1781C19.1238 5.00099 19.0495 4.8348 18.9284 4.70926L16.8845 2.58606C16.7635 2.46049 16.6035 2.38361 16.433 2.36912C16.2625 2.35463 16.0926 2.4035 15.9536 2.50697L14.2835 3.74804C13.9491 3.57507 13.6055 3.42659 13.251 3.30412L12.9139 1.1984C12.8858 1.02319 12.7988 0.864044 12.6684 0.749203C12.538 0.634361 12.3725 0.571326 12.2016 0.571289H9.3128ZM9.92497 2.07179H11.5894L11.8912 3.95468C11.9141 4.09716 11.976 4.22973 12.0695 4.33656C12.1631 4.44338 12.2844 4.51989 12.4188 4.55687C12.9799 4.71056 13.519 4.94183 14.0212 5.24412C14.1415 5.31652 14.2793 5.35132 14.4182 5.34433C14.557 5.33734 14.691 5.28889 14.804 5.20475L16.2963 4.09694L17.4741 5.32045L16.405 6.87373C16.3241 6.99154 16.2777 7.13113 16.2715 7.27568C16.2652 7.42023 16.2993 7.56358 16.3697 7.68845C16.6627 8.20889 16.8867 8.76768 17.0369 9.35007C17.0727 9.48943 17.1465 9.61511 17.2493 9.71205C17.3521 9.80898 17.4796 9.87305 17.6166 9.89662L19.4235 10.2102V11.9393L17.611 12.2529C17.4738 12.2765 17.3461 12.3408 17.2433 12.438C17.1405 12.5353 17.0668 12.6613 17.0312 12.8009C16.8833 13.3838 16.6607 13.9438 16.3697 14.4654C16.3 14.5904 16.2665 14.7336 16.2733 14.8779C16.28 15.0221 16.3267 15.1613 16.4077 15.2787L17.4741 16.8289L16.2963 18.0525L14.8011 16.9418C14.6877 16.8578 14.5534 16.8097 14.4142 16.8032C14.2751 16.7967 14.1371 16.8321 14.0169 16.9052C13.5159 17.2096 12.978 17.4423 12.4173 17.5983C12.2832 17.6355 12.1622 17.7122 12.0689 17.819C11.9756 17.9258 11.9139 18.0583 11.8912 18.2006L11.5894 20.0776H9.92497L9.62312 18.1945C9.60031 18.0521 9.53841 17.9194 9.44483 17.8126C9.35125 17.7058 9.22998 17.6292 9.09558 17.5923C8.53442 17.4386 7.99532 17.2073 7.49321 16.905C7.37289 16.8327 7.23502 16.7979 7.09615 16.805C6.95729 16.812 6.82333 16.8605 6.71036 16.9447L5.21802 18.0525L4.04023 16.8289L5.10941 15.2757C5.19028 15.1579 5.23663 15.0183 5.24289 14.8738C5.24914 14.7292 5.21503 14.5859 5.14466 14.461C4.85166 13.9406 4.62764 13.3818 4.47747 12.7994C4.44163 12.6601 4.36789 12.5344 4.26507 12.4374C4.16225 12.3405 4.03472 12.2764 3.89774 12.2529L2.09087 11.9393V10.2102L3.90341 9.89662C4.04057 9.87293 4.16822 9.80865 4.27106 9.71144C4.37389 9.61423 4.44753 9.48823 4.48313 9.3486C4.6311 8.76564 4.85368 8.20564 5.14468 7.68404C5.21435 7.55905 5.24783 7.41579 5.24107 7.27153C5.23432 7.12727 5.18764 6.98816 5.10662 6.87079L4.04026 5.32045L5.21805 4.09694L6.71321 5.20761C6.82662 5.29161 6.96099 5.33983 7.10014 5.34632C7.23929 5.35281 7.37727 5.31732 7.49747 5.24421C7.99845 4.93982 8.53641 4.70714 9.09701 4.55116C9.23116 4.51393 9.35213 4.43731 9.44544 4.3305C9.53876 4.22368 9.60045 4.09119 9.62314 3.94888L9.92497 2.07179ZM10.7586 6.57026C8.37401 6.57026 6.42543 8.59595 6.42543 11.0731C6.42543 13.5503 8.37401 15.576 10.7586 15.576C13.1432 15.576 15.0875 13.5503 15.0875 11.0731C15.0875 8.59595 13.1432 6.57026 10.7586 6.57026ZM10.7586 8.07067C12.3626 8.07067 13.6488 9.40689 13.6488 11.0731C13.6488 12.7394 12.3626 14.0741 10.7586 14.0741C9.15461 14.0741 7.86982 12.7394 7.86982 11.0731C7.86982 9.40689 9.15461 8.07067 10.7586 8.07067Z" fill="#FBEECB"/>
</svg>
