<svg width="26" height="27" viewBox="0 0 26 27" fill="none" xmlns="http://www.w3.org/2000/svg">
<path d="M12.998 0.0205078C5.82858 0.0205078 0 5.84909 0 13.0185C0 20.1879 5.82858 26.0165 12.998 26.0165C20.1674 26.0165 25.996 20.1879 25.996 13.0185C25.996 5.84909 20.1674 0.0205078 12.998 0.0205078ZM22.1377 14.1678H23.6427C23.4238 16.2749 22.5755 18.163 21.3441 19.7227L20.2769 18.6555C19.8391 18.2177 19.1002 18.2177 18.6624 18.6555C18.2246 19.0934 18.2246 19.8322 18.6624 20.27L19.7296 21.3372C18.1698 22.596 16.2543 23.4169 14.1747 23.6358V22.1308C14.1747 21.5014 13.6547 20.9815 13.0254 20.9815C12.396 20.9815 11.8761 21.5014 11.8761 22.1308V23.6358C9.76903 23.4169 7.8809 22.5686 6.32114 21.3372L7.38834 20.27C7.82617 19.8322 7.82617 19.0934 7.38834 18.6555C6.95051 18.2177 6.21168 18.2177 5.77385 18.6555L4.70665 19.7227C3.44789 18.163 2.62697 16.2475 2.40805 14.1678H3.91308C4.54246 14.1678 5.06238 13.6479 5.06238 13.0185C5.06238 12.3891 4.54246 11.8692 3.91308 11.8692H2.40805C2.62697 9.76217 3.47526 7.87404 4.70665 6.31428L5.77385 7.38148C5.99277 7.6004 6.29377 7.70986 6.59478 7.70986C6.89578 7.70986 7.16943 7.6004 7.4157 7.38148C7.85353 6.94366 7.85353 6.20482 7.4157 5.76699L6.3485 4.69979C7.90826 3.44104 9.82376 2.62011 11.9034 2.4012V3.90623C11.9034 4.5356 12.4234 5.05552 13.0527 5.05552C13.6821 5.05552 14.202 4.5356 14.202 3.90623V2.4012C16.3091 2.62011 18.1972 3.4684 19.757 4.69979L18.6898 5.76699C18.2519 6.20482 18.2519 6.94366 18.6898 7.38148C18.9087 7.6004 19.2097 7.70986 19.5107 7.70986C19.8117 7.70986 20.0853 7.6004 20.3316 7.38148L21.3988 6.31428C22.6576 7.87404 23.4785 9.78954 23.7248 11.8692H22.2197C21.5904 11.8692 21.0705 12.3891 21.0705 13.0185C21.0705 13.6479 21.4809 14.1678 22.1377 14.1678Z" fill="#FBEECB"/>
<path d="M14.1482 12.5532V7.81922C14.1482 7.18984 13.6283 6.66992 12.9989 6.66992C12.3695 6.66992 11.8496 7.18984 11.8496 7.81922V13.0184C11.8496 13.3194 11.9591 13.6204 12.178 13.8393L14.6681 16.3295C14.887 16.5484 15.188 16.6579 15.4891 16.6579C15.7901 16.6579 16.0637 16.5484 16.31 16.3295C16.7478 15.8917 16.7478 15.1528 16.31 14.715L14.1482 12.5532Z" fill="#FBEECB"/>
</svg>
